<svg version="1.1" viewBox="0 0 256 256" xmlns="http://www.w3.org/2000/svg">
 <rect width="256" height="256" rx="20" ry="20" fill="#002124"/>
 <g transform="matrix(2.6795 0 0 2.6795 14.119 71.06)" fill="#fff">
  <path class="st0" d="m73.7 16c-0.6 0-1-0.4-1-1v-4.4h-0.4c-2.3 0-3.1 0.4-3.1 2.5v12.9c0 0.8-0.2 1.5-0.5 2-0.6 1-1.9 1.4-3.8 1.4-2 0-3.2-0.4-3.8-1.4-0.3-0.5-0.5-1.2-0.5-2v-12.9c0-2.1-0.8-2.5-3.1-2.5h-0.7c-2.3 0-3.1 0.4-3.1 2.5v12.9c0 2.1 0.5 3.8 1.4 5.2 1.7 2.7 5.1 4.2 9.9 4.2s8.2-1.5 9.9-4.2c0.9-1.4 1.4-3.2 1.4-5.2v-10z"/>
  <path class="st0" d="m80.5 3.6h3.8c0.4 0 0.7 0.3 0.7 0.7v3.8c0 0.4-0.3 0.7-0.7 0.7h-3.8c-0.4 0-0.7-0.3-0.7-0.7v-3.8c0-0.4 0.3-0.7 0.7-0.7z"/>
  <path class="st0" d="m76.7 0h2.6c0.3 0 0.5 0.2 0.5 0.5v2.6c0 0.3-0.2 0.5-0.5 0.5h-2.6c-0.3 0-0.5-0.2-0.5-0.5v-2.6c0-0.3 0.3-0.5 0.5-0.5z"/>
  <path class="st0" d="m9.7 10.6h-5.5c-2.9 0-4.2 1.3-4.2 4.2v18.8c0 1.1 0.4 1.5 1.5 1.5h0.4c1.1 0 1.5-0.4 1.5-1.5v-7.3h6.3c5.6 0 8.3-2.5 8.3-7.9s-2.7-7.8-8.3-7.8zm4.9 7.8c0 3.1-0.8 4.7-4.9 4.7h-6.3v-7.9c0-1.1 0.4-1.5 1.5-1.5h4.8c3.1 0.1 4.9 0.8 4.9 4.7z"/>
  <path class="st0" d="m25 16c-2.2 0-3.5 0.3-4 0.4-0.9 0.2-1.3 0.4-1.3 1.5v0.3c0 0.4 0.1 0.7 0.2 0.9 0.2 0.2 0.4 0.3 0.7 0.3 0.2 0 0.3 0 0.6-0.1 0.5-0.1 2.2-0.4 4-0.4 3.3 0 4.6 0.9 4.6 3.1v2h-4.1c-5.3 0-7.8 1.8-7.8 5.6s2.6 5.8 7.2 5.8c5.5 0 8-1.9 8-6.1v-7.3c-0.1-4-2.7-6-8.1-6zm4.8 10.6v2.6c0 2.1-0.8 3.3-4.8 3.3-2.6 0-3.9-0.9-3.9-2.9 0-2.1 1.3-3 4.6-3z"/>
  <path class="st0" d="m51.2 16.9c-0.2-0.3-0.7-0.3-1.1-0.3h-0.3c-1.1 0-1.5 0.3-1.8 1.4l-3.1 12.8c-0.4 1.6-0.9 1.9-1.8 1.9-1.1 0-1.6-0.3-2-1.9l-3.5-12.8c-0.3-1.1-0.7-1.4-1.8-1.4h-0.3c-0.4 0-0.9 0-1.1 0.3s-0.2 0.7 0 1.2l3.5 12.9c0.7 2.5 1.4 4.5 4.4 4.5 0.5 0 1-0.1 1.5-0.2-0.9 2.8-1.8 4-4.5 4.3-0.5 0-0.9 0.1-1.1 0.4s-0.2 0.7-0.1 1l0.1 0.3c0.2 0.8 0.4 1.2 1.3 1.2h0.3c4-0.3 6.1-2.4 7.4-7.4l4.3-17c-0.2-0.5-0.1-1-0.3-1.2z"/>
  <path class="st0" d="m78.8 8.9h-5.1c-0.6 0-1 0.4-1 1v0.7h0.4c2.3 0 3.1 0.4 3.1 2.5v3h2.6c0.6 0 1-0.4 1-1v-5.2c0-0.6-0.4-1-1-1z"/>
 </g>
</svg>
